<?xml version="1.0" standalone="no"?>
<!DOCTYPE svg PUBLIC "-//W3C//DTD SVG 20010904//EN"
 "http://www.w3.org/TR/2001/REC-SVG-20010904/DTD/svg10.dtd">
<svg version="1.0" xmlns="http://www.w3.org/2000/svg"
 width="400.000000pt" height="400.000000pt" viewBox="0 0 400.000000 400.000000"
 preserveAspectRatio="xMidYMid meet">
<metadata>
Created by potrace 1.14, written by Peter Selinger 2001-2017
</metadata>
<g transform="translate(0.000000,400.000000) scale(0.100000,-0.100000)"
fill="#000000" stroke="none">
<path d="M575 2995 c-365 -50 -586 -200 -570 -388 13 -155 151 -280 450 -408
22 -9 124 -38 140 -40 6 -1 17 -5 26 -10 41 -21 264 -51 432 -56 97 -3 177 -3
177 0 0 14 -221 97 -257 97 -22 0 -62 4 -89 9 -27 5 -69 12 -93 16 -71 10
-209 53 -287 89 -216 100 -312 235 -259 362 38 92 178 169 380 209 17 4 93 9
170 12 516 20 985 -238 870 -480 -20 -43 -97 -115 -132 -123 -37 -10 -20 -19
80 -44 l93 -23 46 31 c269 185 145 466 -281 637 -82 32 -206 70 -271 81 -14 3
-32 7 -40 9 -8 2 -37 7 -65 10 -27 4 -61 9 -75 11 -55 12 -360 11 -445 -1z"/>
<path d="M3079 3006 c-2 -2 -35 -6 -74 -9 -38 -4 -95 -11 -125 -16 -30 -6 -68
-13 -83 -15 -16 -3 -70 -17 -120 -32 -332 -97 -546 -264 -564 -439 -8 -76 17
-136 82 -200 81 -78 91 -81 177 -60 40 10 84 22 98 27 l25 9 -32 16 c-44 21
-113 91 -130 131 -19 45 -14 97 13 152 21 43 96 120 144 148 205 121 393 167
680 167 156 -1 199 -4 273 -23 290 -72 402 -226 284 -390 -75 -104 -280 -212
-477 -251 -97 -19 -114 -21 -180 -27 -78 -6 -126 -19 -203 -56 -31 -16 -61
-28 -67 -28 -5 0 -12 -5 -16 -11 -5 -9 39 -10 172 -6 98 3 190 8 204 11 14 3
45 9 70 12 25 3 48 8 51 10 3 2 21 6 40 9 19 3 42 8 51 11 9 3 26 7 37 9 49 9
182 60 262 100 110 54 163 91 228 157 168 171 124 362 -110 480 -77 39 -216
83 -297 94 -26 3 -56 8 -67 11 -25 6 -340 15 -346 9z"/>
<path d="M3007 2480 c-72 -7 -83 -20 -78 -102 0 -16 -1 -28 -3 -28 -2 0 -55
-18 -117 -41 -310 -112 -452 -153 -604 -175 -70 -10 -298 -12 -360 -3 -33 5
-82 11 -109 14 -27 3 -52 7 -56 10 -3 2 -20 6 -36 9 -55 10 -200 56 -384 122
l-185 67 -1 48 c-1 72 -11 79 -114 79 -83 0 -87 -1 -98 -25 -20 -43 -15 -100
10 -124 13 -12 104 -56 203 -97 284 -118 438 -200 544 -291 l34 -29 -43 -43
c-76 -76 -297 -200 -319 -178 -17 17 -131 14 -142 -4 -14 -22 -10 -76 7 -93
28 -29 65 -31 129 -6 167 63 326 112 415 127 84 15 100 20 104 38 3 11 21 36
41 55 l35 34 0 -52 c0 -29 -4 -52 -10 -52 -5 0 -10 -22 -10 -50 l0 -50 78 -1
c42 0 112 0 155 1 137 2 214 -59 224 -179 l5 -56 -36 -1 c-20 0 -36 3 -36 7 0
4 -18 26 -39 48 -143 149 -382 109 -472 -77 -17 -35 -22 -65 -22 -117 0 -120
60 -212 171 -263 121 -55 284 -4 355 111 13 19 26 27 47 27 22 0 29 5 32 23 2
15 11 23 29 25 15 2 29 11 31 20 6 23 1 287 -7 336 -15 99 -79 159 -205 191
-45 11 -45 11 -45 56 0 49 -4 48 81 18 68 -23 103 -42 138 -75 17 -17 58 -36
105 -49 42 -12 126 -42 186 -66 120 -47 183 -55 212 -26 19 18 22 80 5 100
-13 15 -117 14 -135 -1 -13 -11 -183 68 -247 115 -52 38 -110 96 -110 108 1
11 80 75 150 119 93 60 310 161 516 240 95 37 124 62 128 106 2 19 -1 47 -7
63 -8 25 -16 30 -72 41 -5 1 -36 -1 -68 -4z m-900 -1001 c85 -41 139 -136 130
-229 -22 -243 -337 -310 -450 -96 -28 53 -30 165 -4 214 67 124 202 170 324
111z"/>
<path d="M1936 1446 c-78 -29 -126 -101 -126 -190 0 -98 92 -187 194 -186 67
1 139 50 171 115 71 152 -82 319 -239 261z m117 -19 c24 -10 38 -24 43 -41 8
-34 3 -39 -61 -70 -31 -14 -80 -42 -108 -61 -51 -34 -52 -35 -70 -16 -26 26
-25 92 3 131 23 32 46 48 95 66 34 13 47 12 98 -9z"/>
<path d="M978 2005 c-2 -2 -25 -5 -53 -9 -341 -40 -495 -173 -356 -307 101
-97 321 -168 566 -183 56 -4 70 -3 46 3 -18 5 -46 19 -62 30 -16 12 -53 26
-81 32 -29 6 -64 13 -77 15 -49 10 -146 46 -186 69 -189 111 -100 235 198 279
144 21 375 8 514 -28 49 -13 63 -12 63 5 0 14 -95 68 -130 73 -19 3 -53 9 -75
12 -38 6 -361 14 -367 9z"/>
<path d="M2717 2004 c-1 -1 -29 -5 -62 -9 -90 -10 -121 -20 -166 -56 -45 -35
-38 -53 15 -38 97 29 218 43 372 42 336 -2 541 -123 414 -245 -51 -48 -176
-99 -302 -123 -69 -13 -85 -19 -103 -36 -12 -10 -39 -23 -60 -28 l-40 -9 45
-1 c25 -1 100 8 166 19 392 64 589 223 442 356 -53 49 -202 102 -338 120 -51
7 -377 14 -383 8z"/>
<path d="M1756 1662 c-11 -2 -36 -14 -55 -26 -65 -40 -166 -69 -285 -82 -33
-3 -80 -15 -104 -25 -25 -11 -55 -20 -68 -21 -12 -1 -21 -5 -19 -9 7 -11 245
0 339 16 100 17 138 28 208 57 41 17 46 23 38 38 -6 10 -10 27 -10 38 0 19 -8
21 -44 14z"/>
<path d="M2445 1547 c2 -29 6 -32 46 -40 47 -8 291 -16 284 -9 -10 10 -152 54
-184 57 -67 7 -136 17 -142 21 -4 2 -6 -11 -4 -29z"/>
</g>
</svg>
